<?xml version="1.0" encoding="UTF-8" standalone="no"?>
<!-- Created with Inkscape (http://www.inkscape.org/) -->

<svg
   width="76.924973mm"
   height="9.999999mm"
   viewBox="0 0 290.74006 37.795273"
   version="1.1"
   id="svg1"
   sodipodi:docname="AHOpen-logo-white.svg"
   inkscape:version="1.4 (e7c3feb100, 2024-10-09)"
   xmlns:inkscape="http://www.inkscape.org/namespaces/inkscape"
   xmlns:sodipodi="http://sodipodi.sourceforge.net/DTD/sodipodi-0.dtd"
   xmlns="http://www.w3.org/2000/svg"
   xmlns:svg="http://www.w3.org/2000/svg">
  <sodipodi:namedview
     id="namedview1"
     pagecolor="#ffffff"
     bordercolor="#000000"
     borderopacity="0.25"
     inkscape:showpageshadow="2"
     inkscape:pageopacity="0.0"
     inkscape:pagecheckerboard="0"
     inkscape:deskcolor="#d1d1d1"
     inkscape:document-units="mm"
     inkscape:zoom="2.6793694"
     inkscape:cx="145.37003"
     inkscape:cy="19.03433"
     inkscape:window-width="1920"
     inkscape:window-height="1011"
     inkscape:window-x="0"
     inkscape:window-y="0"
     inkscape:window-maximized="1"
     inkscape:current-layer="layer1" />
  <defs
     id="defs1">
    <clipPath
       clipPathUnits="userSpaceOnUse"
       id="clipPath177">
      <path
         d="M 0,0 H 841.88977 V 595.27559 H 0 Z"
         transform="matrix(1,0,0,-1,-58.671772,891.89658)"
         id="path177" />
    </clipPath>
  </defs>
  <g
     id="layer1"
     transform="translate(-979.63927,106.17836)">
    <path
       id="path28"
       clip-path="url(#clipPath177)"
       style="fill:#ffffff;fill-opacity:1;fill-rule:nonzero;stroke:none;stroke-width:0.587718"
       d="m 225.20548,402.21167 c -0.45121,0 -0.81445,0.39352 -0.81445,0.7998 v 15.12451 c 0,0.40231 0.36324,0.73536 0.81445,0.73536 h 2.29981 c 0.3662,0 0.65773,-0.19922 0.82763,-0.61524 l 6.14942,-15.22851 c 0.0762,-0.18073 0.15088,-0.29932 0.15088,-0.48194 0,-0.211 -0.15233,-0.33398 -0.39844,-0.33398 z m 15.47315,0 c -0.22261,0 -0.36328,0.16501 -0.36328,0.34863 0,0.13769 0.0581,0.28809 0.13037,0.45117 l 6.86279,15.39258 c 0.1152,0.2558 0.34964,0.46729 0.66504,0.46729 h 1.25098 c 0.47169,0 0.73681,-0.35154 0.73681,-0.73243 v -15.16113 c 0,-0.4082 -0.32712,-0.76611 -0.82031,-0.76611 z m 14.34082,0 c -0.5469,0 -0.78369,0.41165 -0.78369,0.78076 v 5.79199 h 8.47705 v -5.79199 c 0,-0.4394 -0.35349,-0.78076 -0.81738,-0.78076 z m 12.75879,0 c -0.47461,0 -0.78809,0.37167 -0.78809,0.78076 v 15.08496 c 0,0.46679 0.23432,0.79395 0.70313,0.79395 h 7.76367 c 0.14062,0 0.33691,-0.0322 0.33691,-0.26661 0,-0.15042 -0.0903,-0.27241 -0.2417,-0.36621 -2.62589,-1.63669 -4.12353,-4.70706 -4.12353,-7.64795 0,-2.90188 1.46973,-6.0029 4.17773,-7.74609 0.11231,-0.0889 0.24317,-0.18564 0.24317,-0.36621 0,-0.14362 -0.1103,-0.2666 -0.25489,-0.2666 z m 17.54297,0 c -0.14649,0 -0.2461,0.13958 -0.2461,0.2666 0,0.16598 0.12259,0.2881 0.25928,0.375 2.72071,1.75098 4.12793,4.8818 4.12793,7.76221 0,2.94091 -1.5737,5.90225 -4.07959,7.60547 -0.15231,0.1054 -0.2666,0.23382 -0.2666,0.36474 0,0.21289 0.13773,0.28565 0.31934,0.28565 h 7.55982 c 0.43052,0 0.7763,-0.34899 0.77293,-0.7795 -0.0375,-4.77823 -0.0242,-9.8566 -0.0242,-14.4622 h 3.75439 l 0.5376,1.79443 c 1.25693,-1.41338 3.17639,-1.78564 5.28809,-1.78564 3.68925,0 6.67969,3.12357 6.67969,6.97705 0,3.85347 -2.99044,6.97705 -6.67969,6.97705 -2.10248,0 -4.01475,-0.52856 -5.27197,-1.97315 v 2.47243 a 0.77952761,0.77952761 45 0 0 0.77953,0.77953 h 52.90406 c 0.44531,0 0.81006,-0.29005 0.81006,-0.73536 v -15.12451 c 0,-0.461 -0.28754,-0.7998 -0.81006,-0.7998 z m 45.8833,1.41797 h 4.27734 v 1.8457 c 1.85595,-1.85598 3.54643,-1.8457 4.67286,-1.8457 1.1265,0 6.83013,0.11863 6.81738,5.65429 l -0.019,8.3628 h -4.24073 c 0.0263,-2.82727 0.0405,-5.53543 0,-8.3628 0,-2.20897 -2.49505,-2.32763 -3.44238,-2.32763 -0.94732,0 -3.78809,1.8e-4 -3.78809,1.48095 v 9.20948 l -4.27734,0.019 z m -10.86035,0.003 c 5.88585,0 7.94238,3.13629 7.94238,7.00488 0,0.48773 -0.0321,0.9642 -0.10107,1.42383 h -11.44629 c 0.20197,1.3254 0.93766,2.25732 3.59326,2.25732 2.15062,-10e-6 3.04161,-0.61192 3.41016,-1.54834 h 4.30224 c -0.6918,2.82544 -2.94666,4.87207 -7.70068,4.87207 -5.88578,0 -7.94092,-3.1363 -7.94092,-7.00488 0,-3.86859 2.05514,-7.00488 7.94092,-7.00488 z m -39.88037,1.57763 c -2.9863,0 -4.96582,2.15579 -4.96582,5.40528 0,3.25149 1.97952,5.40527 4.96582,5.40527 2.96478,0 4.94238,-2.15378 4.94238,-5.40527 0,-3.24949 -1.9776,-5.40528 -4.94238,-5.40528 z m -42.95801,0.69873 -2.51661,6.6753 h 5.28516 z m 64.19531,0.98731 c -1.6326,-2.5e-4 -3.03641,0.9152 -3.65771,2.22803 l 0.007,3.03955 c 0.62363,1.30763 2.02477,2.21801 3.65332,2.21777 2.20838,3.3e-4 3.99887,-1.67537 3.99902,-3.74268 -1.5e-4,-2.06731 -1.79064,-3.743 -3.99902,-3.74267 z m 18.62988,0.082 c -2.64,0 -3.38325,0.9219 -3.59033,2.23535 h 7.18067 c -0.20708,-1.31345 -0.95026,-2.23534 -3.59034,-2.23535 z m -66.09521,5.13281 v 5.93701 c 0,0.4082 0.24857,0.82325 0.73388,0.82325 h 7.01221 c 0.4502,0 0.73096,-0.32087 0.73096,-0.73096 v -6.0293 z m -20.40088,3.4292 c -0.0117,0.0273 -1.00782,2.59808 -1.00782,2.86377 0,0.26752 0.2182,0.46729 0.55811,0.46729 h 8.70996 c 0.3584,0 0.56543,-0.23438 0.56543,-0.45118 0,-0.28128 -1.14697,-2.87988 -1.14697,-2.87988 z"
       transform="matrix(2.2686635,0,0,2.2686635,470.57151,-1018.6613)" />
  </g>
</svg>
